<svg width="1000" height="1000" viewBox="0 0 1000 1000" fill="none" xmlns="http://www.w3.org/2000/svg">
<rect width="1000" height="1000" rx="200" fill="url(#paint0_linear_1_2)"/>
<path d="M456.193 522.402H280.443L279.49 448.522H439.046C465.401 448.522 488.421 444.073 508.108 435.176C527.794 426.278 543.036 413.568 553.831 397.044C564.945 380.202 570.501 360.183 570.501 336.986C570.501 311.565 565.58 290.91 555.737 275.022C546.211 258.816 531.446 247.059 511.442 239.75C491.755 232.124 466.671 228.31 436.189 228.31H300.923V847H209V153H436.189C471.751 153 503.504 156.654 531.446 163.963C559.388 170.954 583.044 182.076 602.413 197.328C622.099 212.263 637.023 231.329 647.184 254.526C657.344 277.723 662.425 305.527 662.425 337.94C662.425 366.538 655.122 392.436 640.516 415.633C625.91 438.512 605.588 457.261 579.551 471.878C553.831 486.495 523.667 495.869 489.056 500L456.193 522.402ZM451.906 847H244.245L296.16 772.166H451.906C481.118 772.166 505.885 767.082 526.207 756.913C546.846 746.745 562.563 732.445 573.359 714.015C584.155 695.267 589.553 673.182 589.553 647.761C589.553 622.022 584.949 599.778 575.741 581.03C566.532 562.282 552.085 547.824 532.399 537.655C512.712 527.487 487.31 522.402 456.193 522.402H325.214L326.166 448.522H505.25L524.778 475.214C558.118 478.074 586.378 487.607 609.557 503.813C632.736 519.701 650.359 540.038 662.425 564.824C674.808 589.61 681 616.938 681 646.808C681 690.024 671.474 726.567 652.423 756.437C633.689 785.989 607.176 808.55 572.883 824.121C538.59 839.374 498.265 847 451.906 847Z" fill="white"/>
<path d="M790 772.166V847H442.901V772.166H790ZM461.019 153V847H369V153H461.019Z" fill="white"/>
<defs>
<linearGradient id="paint0_linear_1_2" x1="1.27134e-05" y1="497.976" x2="1000" y2="497.976" gradientUnits="userSpaceOnUse">
<stop stop-color="#3F83F8"/>
<stop offset="1" stop-color="#1A56DB"/>
</linearGradient>
</defs>
</svg>
